0
SECTION
2
HEADER
9
$INSUNITS
70
1
9
$ACADVER
1
AC1014
9
$HANDSEED
5
FFFF
0
ENDSEC
0
SECTION
2
TABLES
0
TABLE
2
VPORT
5
8
100
AcDbSymbolTable
0
ENDTAB
0
TABLE
2
LTYPE
5
5
100
AcDbSymbolTable
0
LTYPE
5
14
100
AcDbSymbolTableRecord
100
AcDbLinetypeTableRecord
2
BYBLOCK
70
0
0
LTYPE
5
15
100
AcDbSymbolTableRecord
100
AcDbLinetypeTableRecord
2
BYLAYER
70
0
0
ENDTAB
0
TABLE
2
LAYER
5
2
100
AcDbSymbolTable
70
2
0
LAYER
5
50
100
AcDbSymbolTableRecord
100
AcDbLayerTableRecord
2
0
70
0
6
CONTINUOUS
0
ENDTAB
0
TABLE
2
STYLE
5
3
100
AcDbSymbolTable
70
1
0
STYLE
5
11
100
AcDbSymbolTableRecord
100
AcDbTextStyleTableRecord
2
STANDARD
70
0
0
ENDTAB
0
TABLE
2
VIEW
5
6
100
AcDbSymbolTable
70
0
0
ENDTAB
0
TABLE
2
UCS
5
7
100
AcDbSymbolTable
70
0
0
ENDTAB
0
TABLE
2
APPID
5
9
100
AcDbSymbolTable
70
2
0
APPID
5
12
100
AcDbSymbolTableRecord
100
AcDbRegAppTableRecord
2
ACAD
70
0
0
ENDTAB
0
TABLE
2
DIMSTYLE
5
A
100
AcDbSymbolTable
70
1
0
ENDTAB
0
TABLE
2
BLOCK_RECORD
5
1
100
AcDbSymbolTable
70
1
0
BLOCK_RECORD
5
1F
100
AcDbSymbolTableRecord
100
AcDbBlockTableRecord
2
*MODEL_SPACE
0
BLOCK_RECORD
5
1B
100
AcDbSymbolTableRecord
100
AcDbBlockTableRecord
2
*PAPER_SPACE
0
ENDTAB
0
ENDSEC
0
SECTION
2
BLOCKS
0
BLOCK
5
20
100
AcDbEntity
100
AcDbBlockBegin
2
*MODEL_SPACE
0
ENDBLK
5
21
100
AcDbEntity
100
AcDbBlockEnd
0
BLOCK
5
1C
100
AcDbEntity
100
AcDbBlockBegin
2
*PAPER_SPACE
0
ENDBLK
5
1D
100
AcDbEntity
100
AcDbBlockEnd
0
ENDSEC
0
SECTION
2
ENTITIES
0
LINE
5
100
100
AcDbEntity
8
0
100
AcDbLine
10
0
20
2.3000000734028854
30
0
11
0.50000001595714894
21
2.3000000734028854
31
0
0
ARC
5
101
100
AcDbEntity
8
0
100
AcDbCircle
10
0.50000001595714894
20
2.0500000654243107
30
0
40
0.25000000797857447
210
0
220
-0
230
1
100
AcDbArc
50
36.869897645844027
51
90
0
LINE
5
102
100
AcDbEntity
8
0
100
AcDbLine
10
0.70000002234000858
20
2.2000000702114555
30
0
11
1.2000000382971574
21
0.90000002872286811
31
0
0
ARC
5
103
100
AcDbEntity
8
0
100
AcDbCircle
10
0.20362562084235075
20
0.5167790989325578
30
0
40
1.0675299812125914
210
0
220
-0
230
1
100
AcDbArc
50
5.2824454998424164
51
21.037511025421825
0
ARC
5
104
100
AcDbEntity
8
0
100
AcDbCircle
10
0.55968857648957271
20
0.54970003301911619
30
0
40
0.70994835936190515
210
0
220
0
230
1
100
AcDbArc
50
-15.708852414587062
51
5.282445499842348
0
LINE
5
105
100
AcDbEntity
8
0
100
AcDbLine
10
1.2431203121954448
20
0.3574820952746906
30
0
11
0.9001821470282958
21
-1.9987487806006081
31
0
0
ARC
5
106
100
AcDbEntity
8
0
100
AcDbCircle
10
0.66443250617998095
20
-1.9644365448604233
30
0
40
0.23823354650762391
210
0
220
0
230
1
100
AcDbArc
50
278.58617973510547
51
351.71901903827995
0
LINE
5
107
100
AcDbEntity
8
0
100
AcDbLine
10
0.70000002234000858
20
-2.2000000702114555
30
0
11
0
21
-2.2000000702114555
31
0
0
CIRCLE
5
108
100
AcDbEntity
8
0
100
AcDbCircle
10
0.58499999999999996
20
0.58499999999999996
30
0
40
0.070999999999999994
210
0
220
0
230
1
0
CIRCLE
5
109
100
AcDbEntity
8
0
100
AcDbCircle
10
0.58499999999999996
20
-0.59499999999999986
30
0
40
0.070999999999999994
210
0
220
0
230
1
0
CIRCLE
5
110
100
AcDbEntity
8
0
100
AcDbCircle
10
-0.58499999999999996
20
0.58499999999999996
30
0
40
0.070999999999999994
210
0
220
0
230
1
0
LINE
5
111
100
AcDbEntity
8
0
100
AcDbLine
10
0
20
2.3000000734028854
30
0
11
-0.50000001595714894
21
2.3000000734028854
31
0
0
ARC
5
112
100
AcDbEntity
8
0
100
AcDbCircle
10
-0.20362562084235075
20
0.51677909893255769
30
0
40
1.0675299812125914
210
0
220
0
230
1
100
AcDbArc
50
158.96248897457818
51
174.71755450015758
0
ARC
5
113
100
AcDbEntity
8
0
100
AcDbCircle
10
-0.55968857648957271
20
0.54970003301911607
30
0
40
0.70994835936190515
210
0
220
0
230
1
100
AcDbArc
50
174.71755450015758
51
195.70885241458703
0
ARC
5
114
100
AcDbEntity
8
0
100
AcDbCircle
10
-0.66443250617998095
20
-1.9644365448604233
30
0
40
0.23823354650762238
210
0
220
0
230
1
100
AcDbArc
50
188.28098096172008
51
261.41382026489453
0
CIRCLE
5
115
100
AcDbEntity
8
0
100
AcDbCircle
10
-0.58499999999999996
20
-0.59500000000000008
30
0
40
0.070999999999999994
210
0
220
0
230
1
0
LINE
5
116
100
AcDbEntity
8
0
100
AcDbLine
10
-0.70000002234000858
20
2.2000000702114555
30
0
11
-1.2000000382971574
21
0.90000002872286811
31
0
0
LINE
5
117
100
AcDbEntity
8
0
100
AcDbLine
10
-1.2431203121954448
20
0.35748209527469066
30
0
11
-0.9001821470282958
21
-1.9987487806006081
31
0
0
LINE
5
118
100
AcDbEntity
8
0
100
AcDbLine
10
-0.70000002234000858
20
-2.2000000702114555
30
0
11
0
21
-2.2000000702114555
31
0
0
ARC
5
119
100
AcDbEntity
8
0
100
AcDbCircle
10
-0.50000001595714894
20
2.0500000654243107
30
0
40
0.25000000797857447
210
0
220
-0
230
1
100
AcDbArc
50
90
51
143.13010235415598
0
CIRCLE
5
120
100
AcDbEntity
8
0
100
AcDbCircle
10
0
20
0
30
0
40
0.45499999999999996
210
0
220
0
230
1
0
CIRCLE
5
121
100
AcDbEntity
8
0
100
AcDbCircle
10
1.0667575957816489
20
0.52450322148812434
30
0
40
0.086000000000000063
210
0
220
0
230
1
0
CIRCLE
5
122
100
AcDbEntity
8
0
100
AcDbCircle
10
-1.0667575957816489
20
0.52450322148812434
30
0
40
0.086000000000000063
210
0
220
0
230
1
0
CIRCLE
5
123
100
AcDbEntity
8
0
100
AcDbCircle
10
0.39999999999999991
20
2.0349999999999997
30
0
40
0.070999999999999994
210
0
220
0
230
1
0
CIRCLE
5
124
100
AcDbEntity
8
0
100
AcDbCircle
10
0.58499999999999996
20
-1.9949999999999997
30
0
40
0.070999999999999994
210
0
220
0
230
1
0
CIRCLE
5
125
100
AcDbEntity
8
0
100
AcDbCircle
10
0
20
1.8199999776423914
30
0
40
0.14099999999999993
210
0
220
0
230
1
0
CIRCLE
5
126
100
AcDbEntity
8
0
100
AcDbCircle
10
0
20
-1.0000000319142979
30
0
40
0.10799999999999996
210
0
220
0
230
1
0
CIRCLE
5
127
100
AcDbEntity
8
0
100
AcDbCircle
10
0
20
-1.8000000319142979
30
0
40
0.10799999999999996
210
0
220
0
230
1
0
LWPOLYLINE
5
128
100
AcDbEntity
8
0
100
AcDbPolyline
90
4
70
1
43
0.0
10
-0.35257919381585023
20
-1.2711305557558068
10
0.3553352204980838
20
-1.2711305557558068
10
0.3553352204980838
20
-1.5853107174898404
10
-0.35257919381585023
20
-1.5853107174898404
0
CIRCLE
5
129
100
AcDbEntity
8
0
100
AcDbCircle
10
-0.39999999999999991
20
2.0349999999999997
30
0
40
0.070999999999999994
210
0
220
0
230
1
0
CIRCLE
5
130
100
AcDbEntity
8
0
100
AcDbCircle
10
-0.58499999999999996
20
-1.9949999999999997
30
0
40
0.070999999999999994
210
0
220
0
230
1
0
ENDSEC
0
SECTION
2
OBJECTS
0
DICTIONARY
5
C
100
AcDbDictionary
3
ACAD_GROUP
350
D
3
ACAD_MLINESTYLE
350
17
0
DICTIONARY
5
D
100
AcDbDictionary
0
DICTIONARY
5
1A
330
C
100
AcDbDictionary
0
DICTIONARY
5
17
100
AcDbDictionary
0
ENDSEC
0
EOF
